<?xml version="1.0" encoding="utf-8"?>
<!-- Generator: Adobe Illustrator 24.1.2, SVG Export Plug-In . SVG Version: 6.00 Build 0)  -->
<svg version="1.1" id="Layer_1" xmlns="http://www.w3.org/2000/svg" xmlns:xlink="http://www.w3.org/1999/xlink" x="0px" y="0px"
	 viewBox="0 0 24 24" style="enable-background:new 0 0 24 24;" xml:space="preserve">
<style type="text/css">
	.st0{fill:#151515;}
</style>
<g>
	<path class="st0" d="M18.4,19.6c-0.3,0-0.6-0.1-0.9-0.4L4.8,6.5C4.3,6,4.3,5.2,4.8,4.8c0.5-0.5,1.3-0.5,1.8,0l12.7,12.7
		c0.5,0.5,0.5,1.3,0,1.8C19,19.5,18.7,19.6,18.4,19.6z"/>
</g>
<g>
	<path class="st0" d="M5.6,19.6c-0.3,0-0.6-0.1-0.9-0.4c-0.5-0.5-0.5-1.3,0-1.8L17.5,4.8c0.5-0.5,1.3-0.5,1.8,0
		c0.5,0.5,0.5,1.3,0,1.8L6.5,19.2C6.3,19.5,6,19.6,5.6,19.6z"/>
</g>
</svg>
