<?xml version="1.0" encoding="utf-8"?>
<!-- Generator: Adobe Illustrator 24.1.2, SVG Export Plug-In . SVG Version: 6.00 Build 0)  -->
<svg version="1.1" id="Layer_1" xmlns="http://www.w3.org/2000/svg" xmlns:xlink="http://www.w3.org/1999/xlink" x="0px" y="0px"
	 viewBox="0 0 11 12" style="enable-background:new 0 0 11 12;" xml:space="preserve">
<style type="text/css">
	.st0{fill:#E6704B;}
</style>
<g>
	<path class="st0" d="M4.3,5.5h-2C1.4,5.5,0.8,4.8,0.8,4V2c0-0.8,0.7-1.5,1.5-1.5h2c0.8,0,1.5,0.7,1.5,1.5v2
		C5.8,4.8,5.1,5.5,4.3,5.5z M2.3,1.5C2,1.5,1.8,1.7,1.8,2v2c0,0.3,0.2,0.5,0.5,0.5h2c0.3,0,0.5-0.2,0.5-0.5V2c0-0.3-0.2-0.5-0.5-0.5
		H2.3z"/>
</g>
<g>
	<path class="st0" d="M4.3,11.5h-2c-0.8,0-1.5-0.7-1.5-1.5V8c0-0.8,0.7-1.5,1.5-1.5h2c0.8,0,1.5,0.7,1.5,1.5v2
		C5.8,10.8,5.1,11.5,4.3,11.5z M2.3,7.5C2,7.5,1.8,7.7,1.8,8v2c0,0.3,0.2,0.5,0.5,0.5h2c0.3,0,0.5-0.2,0.5-0.5V8
		c0-0.3-0.2-0.5-0.5-0.5H2.3z"/>
</g>
<g>
	<path class="st0" d="M9.8,8.5h-3C6.5,8.5,6.3,8.3,6.3,8s0.2-0.5,0.5-0.5h3c0.3,0,0.5,0.2,0.5,0.5S10,8.5,9.8,8.5z"/>
</g>
<g>
	<path class="st0" d="M8.8,10.5h-2c-0.3,0-0.5-0.2-0.5-0.5s0.2-0.5,0.5-0.5h2C9,9.5,9.3,9.7,9.3,10S9,10.5,8.8,10.5z"/>
</g>
<g>
	<path class="st0" d="M8.8,4.5h-2C6.5,4.5,6.3,4.3,6.3,4s0.2-0.5,0.5-0.5h2C9,3.5,9.3,3.7,9.3,4S9,4.5,8.8,4.5z"/>
</g>
<g>
	<path class="st0" d="M9.8,2.5h-3C6.5,2.5,6.3,2.3,6.3,2s0.2-0.5,0.5-0.5h3c0.3,0,0.5,0.2,0.5,0.5S10,2.5,9.8,2.5z"/>
</g>
</svg>
