<?xml version="1.0" encoding="UTF-8"?>
<!DOCTYPE svg PUBLIC "-//W3C//DTD SVG 1.1//EN" "http://www.w3.org/Graphics/SVG/1.1/DTD/svg11.dtd">
<!-- Creator: CorelDRAW 2018 (64-Bit) -->
<svg xmlns="http://www.w3.org/2000/svg" xml:space="preserve" width="210mm" height="297mm" version="1.1" style="shape-rendering:geometricPrecision; text-rendering:geometricPrecision; image-rendering:optimizeQuality; fill-rule:evenodd; clip-rule:evenodd"
viewBox="0 0 21000 29700"
 xmlns:xlink="http://www.w3.org/1999/xlink">
 <defs>
  <style type="text/css">
   <![CDATA[
    .fil0 {fill:whitesmoke}
   ]]>
  </style>
 </defs>
 <g id="Слой_x0020_1">
  <metadata id="CorelCorpID_0Corel-Layer"/>
  <g id="_2510371084512">
   <path class="fil0" d="M18375 24737.5c-437.5,0 -962.5,-350 -1050,-787.5l-700 -2537.5c-1137.5,-4025 -3850,-5425 -6125,-5425 -2275,0 -4987.5,1400 -6125,5425l-700 2537.5c-175,525 -787.5,875 -1312.5,700 -612.5,-175 -962.5,-787.5 -787.5,-1312.5l700 -2537.5c1137.5,-4287.5 4375,-7000 8225,-7000 3850,0 7087.5,2800 8225,7000l700 2537.5c175,612.5 -175,1225 -787.5,1312.5 -87.5,0 -175,87.5 -262.5,87.5z"/>
  </g>
  <g id="_2510371084576">
   <path class="fil0" d="M10500 15900c-2975,0 -5512.5,-2450 -5512.5,-5512.5 0,-3062.5 2537.5,-5425 5512.5,-5425 2975,0 5512.5,2450 5512.5,5512.5 0,3062.5 -2537.5,5425 -5512.5,5425zm0 -8750c-1837.5,0 -3237.5,1487.5 -3237.5,3325 0,1837.5 1487.5,3325 3325,3325 1837.5,0 3325,-1487.5 3325,-3325 0,-1837.5 -1575,-3325 -3412.5,-3325z"/>
  </g>
 </g>
</svg>
