<?xml version="1.0" encoding="utf-8"?>
<!-- Generator: Adobe Illustrator 24.1.2, SVG Export Plug-In . SVG Version: 6.00 Build 0)  -->
<svg version="1.1" id="Layer_1" xmlns="http://www.w3.org/2000/svg" xmlns:xlink="http://www.w3.org/1999/xlink" x="0px" y="0px"
	 viewBox="0 0 24 24" style="enable-background:new 0 0 24 24;" xml:space="preserve">
<style type="text/css">
	.st0{fill:#151515;}
</style>
<g>
	<path class="st0" d="M6.1,22.1c-0.6,0-1.2-0.2-1.6-0.6c-0.5-0.4-0.8-0.9-0.9-1.5L0.9,9.5c-0.1-0.3-0.1-0.6,0-0.9
		C0.9,8.3,1,8,1.2,7.8c0.2-0.2,0.4-0.4,0.7-0.6C2.2,7.1,2.5,7,2.8,7h18.5c0.3,0,0.6,0.1,0.9,0.2c0.3,0.1,0.5,0.3,0.7,0.6
		C23,8,23.1,8.3,23.1,8.6c0.1,0.3,0.1,0.6,0,0.9l-2.7,10.6c-0.1,0.6-0.5,1.1-0.9,1.5c-0.5,0.4-1,0.6-1.6,0.6c0,0,0,0,0,0H6.1
		C6.1,22.1,6.1,22.1,6.1,22.1z M6.1,19.6h11.8c0,0,0,0,0,0l0,0c0,0,0.1,0,0.1,0c0,0,0.1-0.1,0.1-0.1l2.5-9.9H3.5l2.5,9.9
		c0,0,0,0.1,0.1,0.1C6,19.6,6.1,19.6,6.1,19.6L6.1,19.6z M2.8,9.5L2.8,9.5C2.8,9.5,2.8,9.5,2.8,9.5z M21.2,9.5
		C21.2,9.5,21.2,9.5,21.2,9.5L21.2,9.5z"/>
</g>
<g>
	<path class="st0" d="M6.9,9.5c-0.2,0-0.4-0.1-0.6-0.2C5.7,9,5.5,8.3,5.8,7.7l2.9-5.1c0.3-0.6,1.1-0.8,1.7-0.5
		c0.6,0.3,0.8,1.1,0.5,1.7L8,8.9C7.8,9.3,7.3,9.5,6.9,9.5z"/>
</g>
<g>
	<path class="st0" d="M16.8,9.5c-0.4,0-0.9-0.2-1.1-0.6l-2.9-5.1c-0.3-0.6-0.1-1.4,0.5-1.7c0.6-0.3,1.4-0.1,1.7,0.5l2.9,5.1
		C18.2,8.3,18,9,17.4,9.4C17.2,9.5,17,9.5,16.8,9.5z"/>
</g>
</svg>
