<?xml version="1.0" encoding="utf-8"?>
<!-- Generator: Adobe Illustrator 24.1.2, SVG Export Plug-In . SVG Version: 6.00 Build 0)  -->
<svg version="1.1" id="Layer_1" xmlns="http://www.w3.org/2000/svg" xmlns:xlink="http://www.w3.org/1999/xlink" x="0px" y="0px"
	 viewBox="0 0 40 40" style="enable-background:new 0 0 40 40;" xml:space="preserve">
<style type="text/css">
	.st0{fill:#151515;}
</style>
<g>
	<path class="st0" d="M26.6,38.1H13.5c-2.5,0-4.6-2.1-4.6-4.6V6.3c0-2.5,2.1-4.6,4.6-4.6h13.1c2.5,0,4.6,2.1,4.6,4.6v27.3
		C31.2,36.1,29.1,38.1,26.6,38.1z M13.5,4.2c-1.1,0-2.1,0.9-2.1,2.1v27.3c0,1.1,0.9,2.1,2.1,2.1h13.1c1.1,0,2.1-0.9,2.1-2.1V6.3
		c0-1.1-0.9-2.1-2.1-2.1H13.5z"/>
</g>
<g>
	<path class="st0" d="M20,32c-1.3,0-2.3-1-2.3-2.3c0-1.3,1-2.3,2.3-2.3h0c1.3,0,2.3,1,2.3,2.3C22.3,30.9,21.3,32,20,32z M20,29.8
		L20,29.8L20,29.8z M20,29.5c-0.1,0-0.2,0.1-0.2,0.2c0,0.1,0.1,0.2,0.2,0.2c0.1,0,0.2-0.1,0.2-0.2C20.2,29.5,20.1,29.5,20,29.5z"/>
</g>
</svg>
