<?xml version="1.0" encoding="utf-8"?>
<!-- Generator: Adobe Illustrator 24.1.2, SVG Export Plug-In . SVG Version: 6.00 Build 0)  -->
<svg version="1.1" id="Layer_1" xmlns="http://www.w3.org/2000/svg" xmlns:xlink="http://www.w3.org/1999/xlink" x="0px" y="0px"
	 viewBox="0 0 16 16" style="enable-background:new 0 0 16 16;" xml:space="preserve">
<style type="text/css">
	.st0{fill:#151515;}
</style>
<g>
	<path class="st0" d="M9.2,12.2c-3,0-5.4-2.4-5.4-5.4c0-3,2.4-5.4,5.4-5.4c3,0,5.4,2.4,5.4,5.4C14.6,9.8,12.2,12.2,9.2,12.2z
		 M9.2,2.9C7,2.9,5.3,4.6,5.3,6.8s1.8,3.9,3.9,3.9c2.2,0,3.9-1.8,3.9-3.9S11.4,2.9,9.2,2.9z"/>
</g>
<g>
	<path class="st0" d="M2.7,14.1c-0.2,0-0.4-0.1-0.5-0.2c-0.3-0.3-0.3-0.8,0-1.1l3.1-3.1c0.3-0.3,0.8-0.3,1.1,0s0.3,0.8,0,1.1
		l-3.1,3.1C3.1,14,2.9,14.1,2.7,14.1z"/>
</g>
</svg>
