<?xml version="1.0" encoding="utf-8"?>
<!-- Generator: Adobe Illustrator 24.1.2, SVG Export Plug-In . SVG Version: 6.00 Build 0)  -->
<svg version="1.1" id="Layer_1" xmlns="http://www.w3.org/2000/svg" xmlns:xlink="http://www.w3.org/1999/xlink" x="0px" y="0px"
	 viewBox="0 0 24 24" style="enable-background:new 0 0 24 24;" xml:space="preserve">
<style type="text/css">
	.st0{fill:#151515;}
</style>
<g>
	<path class="st0" d="M21,23.3c-0.5,0-1.1-0.4-1.2-0.9L19,19.5c-1.3-4.6-4.4-6.2-7-6.2c-2.6,0-5.7,1.6-7,6.2l-0.8,2.9
		C4,23,3.3,23.4,2.7,23.2C2,23,1.6,22.3,1.8,21.7l0.8-2.9c1.3-4.9,5-8,9.4-8c4.4,0,8.1,3.2,9.4,8l0.8,2.9c0.2,0.7-0.2,1.4-0.9,1.5
		C21.2,23.2,21.1,23.3,21,23.3z"/>
</g>
<g>
	<path class="st0" d="M12,13.2c-3.4,0-6.3-2.8-6.3-6.3S8.6,0.7,12,0.7s6.3,2.8,6.3,6.3S15.4,13.2,12,13.2z M12,3.2
		C9.9,3.2,8.3,4.9,8.3,7s1.7,3.8,3.8,3.8c2.1,0,3.8-1.7,3.8-3.8S14.1,3.2,12,3.2z"/>
</g>
</svg>
