<?xml version="1.0" encoding="utf-8"?>
<!-- Generator: Adobe Illustrator 24.1.2, SVG Export Plug-In . SVG Version: 6.00 Build 0)  -->
<svg version="1.1" id="Layer_1" xmlns="http://www.w3.org/2000/svg" xmlns:xlink="http://www.w3.org/1999/xlink" x="0px" y="0px"
	 viewBox="0 0 9 8" style="enable-background:new 0 0 9 8;" xml:space="preserve">
<style type="text/css">
	.st0{fill:#151515;}
</style>
<g>
	<path class="st0" d="M7.7,7.7c-0.1,0-0.3,0-0.4-0.1L1,1.2C0.8,1,0.8,0.7,1,0.5s0.5-0.2,0.7,0L8,6.8C8.2,7,8.2,7.3,8,7.5
		C7.9,7.6,7.8,7.7,7.7,7.7z"/>
</g>
<g>
	<path class="st0" d="M1.3,7.7c-0.1,0-0.3,0-0.4-0.1C0.8,7.3,0.8,7,1,6.8l6.4-6.4c0.2-0.2,0.5-0.2,0.7,0S8.2,1,8,1.2L1.7,7.5
		C1.6,7.6,1.4,7.7,1.3,7.7z"/>
</g>
</svg>
