<?xml version="1.0" encoding="utf-8"?>
<!-- Generator: Adobe Illustrator 24.1.2, SVG Export Plug-In . SVG Version: 6.00 Build 0)  -->
<svg version="1.1" id="Layer_1" xmlns="http://www.w3.org/2000/svg" xmlns:xlink="http://www.w3.org/1999/xlink" x="0px" y="0px"
	 viewBox="0 0 40 40" style="enable-background:new 0 0 40 40;" xml:space="preserve">
<style type="text/css">
	.st0{fill:#151515;}
</style>
<g>
	<path class="st0" d="M4.2,36.3c-0.1,0-0.2,0-0.3,0C3.2,36,2.8,35.3,3,34.7l1.3-4.8c2.2-7.8,8-12.8,14.9-12.8c0.7,0,1.3,0.6,1.3,1.3
		s-0.6,1.3-1.3,1.3c-5.7,0-10.6,4.3-12.5,11l-1.3,4.8C5.2,35.9,4.7,36.3,4.2,36.3z"/>
</g>
<g>
	<path class="st0" d="M19.2,19.6c-5.3,0-9.6-4.3-9.6-9.6s4.3-9.6,9.6-9.6s9.6,4.3,9.6,9.6S24.5,19.6,19.2,19.6z M19.2,2.9
		c-3.9,0-7.1,3.2-7.1,7.1s3.2,7.1,7.1,7.1c3.9,0,7.1-3.2,7.1-7.1S23.1,2.9,19.2,2.9z"/>
</g>
<g>
	<path class="st0" d="M27.5,39.6c-5.3,0-9.6-4.3-9.6-9.6s4.3-9.6,9.6-9.6s9.6,4.3,9.6,9.6S32.8,39.6,27.5,39.6z M27.5,22.9
		c-3.9,0-7.1,3.2-7.1,7.1c0,3.9,3.2,7.1,7.1,7.1c3.9,0,7.1-3.2,7.1-7.1C34.6,26.1,31.4,22.9,27.5,22.9z"/>
</g>
<g>
	<path class="st0" d="M26.8,34.6c-0.3,0-0.6-0.1-0.9-0.4c-0.5-0.5-0.5-1.3,0-1.8l2.5-2.5l-2.5-2.4c-0.5-0.5-0.5-1.3,0-1.8
		s1.3-0.5,1.8,0l3.1,3.1c0.1,0.1,0.2,0.3,0.3,0.5c0.1,0.2,0.1,0.4,0.1,0.6c0,0.2,0,0.4-0.1,0.6c-0.1,0.2-0.2,0.4-0.4,0.5l-3.1,3.1
		C27.4,34.5,27.1,34.6,26.8,34.6z M29,30.6C29,30.6,29,30.7,29,30.6L29,30.6z M29,29.3C29,29.4,29,29.4,29,29.3L29,29.3z"/>
</g>
</svg>
