<?xml version="1.0" encoding="utf-8"?>
<!-- Generator: Adobe Illustrator 24.1.2, SVG Export Plug-In . SVG Version: 6.00 Build 0)  -->
<svg version="1.1" id="Layer_1" xmlns="http://www.w3.org/2000/svg" xmlns:xlink="http://www.w3.org/1999/xlink" x="0px" y="0px"
	 viewBox="0 0 12 10" style="enable-background:new 0 0 12 10;" xml:space="preserve">
<style type="text/css">
	.st0{fill:#151515;}
</style>
<g>
	<path class="st0" d="M5.9,9.7H5.1L0.9,5.4C0.3,4.8,0,4.1,0,3.2c0-0.8,0.3-1.6,0.9-2.2C2-0.1,4-0.1,5.2,1.1l0.3,0.3l0.3-0.3
		C7-0.1,9-0.1,10.1,1.1C10.7,1.7,11,2.4,11,3.2c0,0.8-0.3,1.6-0.9,2.2L5.9,9.7z M3,1.2C2.5,1.2,2,1.4,1.6,1.8C1.2,2.2,1,2.7,1,3.2
		c0,0.5,0.2,1.1,0.6,1.4l3.9,3.9l3.9-3.9C9.8,4.3,10,3.8,10,3.2S9.8,2.2,9.4,1.8C8.6,1,7.3,1,6.5,1.8L5.9,2.5H5.1L4.5,1.8
		C4.1,1.4,3.6,1.2,3,1.2z"/>
</g>
</svg>
