<?xml version="1.0" encoding="utf-8"?>
<!-- Generator: Adobe Illustrator 24.1.2, SVG Export Plug-In . SVG Version: 6.00 Build 0)  -->
<svg version="1.1" id="Layer_1" xmlns="http://www.w3.org/2000/svg" xmlns:xlink="http://www.w3.org/1999/xlink" x="0px" y="0px"
	 viewBox="0 0 13 12" style="enable-background:new 0 0 13 12;" xml:space="preserve">
<style type="text/css">
	.st0{fill:#151515;}
</style>
<g>
	<path class="st0" d="M9.7,9.7c-0.1,0-0.3,0-0.4-0.1L3,3.2C2.8,3,2.8,2.7,3,2.5s0.5-0.2,0.7,0L10,8.8c0.2,0.2,0.2,0.5,0,0.7
		C9.9,9.6,9.8,9.7,9.7,9.7z"/>
</g>
<g>
	<path class="st0" d="M3.3,9.7c-0.1,0-0.3,0-0.4-0.1C2.8,9.3,2.8,9,3,8.8l6.4-6.4c0.2-0.2,0.5-0.2,0.7,0s0.2,0.5,0,0.7L3.7,9.5
		C3.6,9.6,3.4,9.7,3.3,9.7z"/>
</g>
</svg>
