<?xml version="1.0" encoding="utf-8"?>
<!-- Generator: Adobe Illustrator 24.1.2, SVG Export Plug-In . SVG Version: 6.00 Build 0)  -->
<svg version="1.1" id="Layer_1" xmlns="http://www.w3.org/2000/svg" xmlns:xlink="http://www.w3.org/1999/xlink" x="0px" y="0px"
	 viewBox="0 0 16 16" style="enable-background:new 0 0 16 16;" xml:space="preserve">
<style type="text/css">
	.st0{fill:#6A983C;}
</style>
<g>
	<path class="st0" d="M13.3,15.2H2.7c-1,0-1.8-0.8-1.8-1.8V2.7c0-1,0.8-1.8,1.8-1.8h10.7c1,0,1.8,0.8,1.8,1.8v10.7
		C15.2,14.3,14.3,15.2,13.3,15.2z M2.7,1.8c-0.5,0-0.8,0.4-0.8,0.8v10.7c0,0.5,0.4,0.8,0.8,0.8h10.7c0.5,0,0.8-0.4,0.8-0.8V2.7
		c0-0.5-0.4-0.8-0.8-0.8H2.7z"/>
</g>
<g>
	<path class="st0" d="M14.7,8.5H1.3C1.1,8.5,0.8,8.3,0.8,8s0.2-0.5,0.5-0.5h13.3c0.3,0,0.5,0.2,0.5,0.5S14.9,8.5,14.7,8.5z"/>
</g>
<g>
	<path class="st0" d="M8,15.2c-0.3,0-0.5-0.2-0.5-0.5V1.3c0-0.3,0.2-0.5,0.5-0.5s0.5,0.2,0.5,0.5v13.3C8.5,14.9,8.3,15.2,8,15.2z"/>
</g>
</svg>
